<svg width="32" height="32" version="1.1" viewBox="0 0 8.47 8.47" xmlns="http://www.w3.org/2000/svg"><g transform="translate(8.39 12.2)"><path d="m-4.78-6.38c-0.654-0.366-0.974-1.11-1.08-1.82-0.17-1.17 0.408-2.41 1.42-3.03 0.58-0.369 1.29-0.535 1.97-0.462-1.3-0.509-2.86-0.241-3.93 0.664-0.681 0.567-1.21 1.38-1.26 2.28-0.0737 1.03 0.513 2.07 1.43 2.54 0.742 0.407 1.68 0.429 2.44 0.0654-0.344 0.0145-0.691-0.0694-0.99-0.24" fill="#0068c7"/><path d="m-3.06-11.3c-0.94 0.0835-1.81 0.701-2.19 1.56-0.124 0.27-0.204 0.559-0.235 0.854 0.341-0.623 1.06-1.01 1.77-0.94 0.531 0.0409 1.03 0.326 1.35 0.758 0.61-0.352 1.22-0.704 1.83-1.06-0.119-0.176-0.973-1.34-2.52-1.18z" fill="#f32735"/><path d="m-2.85-6.31c-0.888 0.833-2.28 1.05-3.38 0.533-0.68-0.309-1.24-0.872-1.54-1.56 0.221 1.45 1.32 2.71 2.72 3.14 1.37 0.446 2.96 0.0592 3.97-0.96 0.169-0.203 0.507-0.478 0.507-0.697-0.595-0.344-1.19-0.687-1.79-1.03-0.139 0.21-0.303 0.403-0.488 0.572" fill="#3eae2b"/></g></svg>
